<svg width="154" height="154" viewBox="0 0 154 154" fill="none" xmlns="http://www.w3.org/2000/svg">
<circle cx="77" cy="77" r="77" fill="#FFA217"/>
<path d="M77.2667 92.5333C84.0414 92.5333 89.5333 87.0414 89.5333 80.2667C89.5333 73.492 84.0414 68 77.2667 68C70.492 68 65 73.492 65 80.2667C65 87.0414 70.492 92.5333 77.2667 92.5333Z" fill="white"/>
<path d="M65.8333 42L58.8183 49.6667H46.6667C42.45 49.6667 39 53.1167 39 57.3333V103.333C39 107.55 42.45 111 46.6667 111H108C112.217 111 115.667 107.55 115.667 103.333V57.3333C115.667 53.1167 112.217 49.6667 108 49.6667H95.8483L88.8333 42H65.8333ZM77.3333 99.5C66.7533 99.5 58.1667 90.9133 58.1667 80.3333C58.1667 69.7533 66.7533 61.1667 77.3333 61.1667C87.9133 61.1667 96.5 69.7533 96.5 80.3333C96.5 90.9133 87.9133 99.5 77.3333 99.5Z" fill="white"/>
</svg>
