<svg width="59" height="59" viewBox="0 0 59 59" fill="none" xmlns="http://www.w3.org/2000/svg">
<path d="M26.55 44.25H32.45V32.45H44.25V26.55H32.45V14.75H26.55V26.55H14.75V32.45H26.55V44.25ZM29.5 59C25.4192 59 21.5842 58.2251 17.995 56.6754C14.4058 55.1257 11.2837 53.0243 8.62875 50.3712C5.97375 47.7162 3.87237 44.5942 2.3246 41.005C0.776834 37.4158 0.00196667 33.5808 0 29.5C0 25.4192 0.774867 21.5842 2.3246 17.995C3.87433 14.4058 5.97572 11.2837 8.62875 8.62875C11.2837 5.97375 14.4058 3.87237 17.995 2.3246C21.5842 0.776834 25.4192 0.00196667 29.5 0C33.5808 0 37.4158 0.774867 41.005 2.3246C44.5942 3.87433 47.7162 5.97572 50.3712 8.62875C53.0262 11.2837 55.1286 14.4058 56.6783 17.995C58.2281 21.5842 59.002 25.4192 59 29.5C59 33.5808 58.2251 37.4158 56.6754 41.005C55.1257 44.5942 53.0243 47.7162 50.3712 50.3712C47.7162 53.0262 44.5942 55.1286 41.005 56.6783C37.4158 58.2281 33.5808 59.002 29.5 59ZM29.5 53.1C36.0883 53.1 41.6687 50.8137 46.2412 46.2412C50.8137 41.6687 53.1 36.0883 53.1 29.5C53.1 22.9117 50.8137 17.3312 46.2412 12.7587C41.6687 8.18625 36.0883 5.9 29.5 5.9C22.9117 5.9 17.3312 8.18625 12.7587 12.7587C8.18625 17.3312 5.9 22.9117 5.9 29.5C5.9 36.0883 8.18625 41.6687 12.7587 46.2412C17.3312 50.8137 22.9117 53.1 29.5 53.1Z" fill="#9C9C9C"/>
</svg>
